<svg xmlns="http://www.w3.org/2000/svg" width="185.45" height="185.271" version="1.1" viewBox="0 0 92.725 92.635"><metadata/><defs><style class="style-fonts"/></defs><g stroke-linecap="round"><g><path fill="none" stroke="#ffc9c9" stroke-width="2" d="M0 0 C9.46 -10.91, 47.28 -54.53, 56.74 -65.44 M0 0 C9.46 -10.91, 47.28 -54.53, 56.74 -65.44" transform="translate(13.96813927886069 76.98198303970935) rotate(0 28.36846319246183 -32.720606052112316)"/></g></g><g stroke-linecap="round"><g><path fill="none" stroke="#ffc9c9" stroke-width="2" d="M0 0 C8.53 -10.15, 42.64 -50.76, 51.17 -60.91 M0 0 C8.53 -10.15, 42.64 -50.76, 51.17 -60.91" transform="translate(30.631318746839952 82.58939475398279) rotate(0 25.584638062066915 -30.45377766753188)"/></g></g><g stroke-linecap="round"><g><path fill="none" stroke="#ffc9c9" stroke-width="2" d="M0 0 C5.12 -5.71, 25.61 -28.55, 30.73 -34.26 M0 0 C5.12 -5.71, 25.61 -28.55, 30.73 -34.26" transform="translate(51.43043577183289 82.2314771974768) rotate(0 15.36403529369818 -17.13119973399546)"/></g></g><g stroke-linecap="round"><g><path fill="none" stroke="#ffc9c9" stroke-width="2" d="M0 0 C3.09 -3.39, 15.47 -16.95, 18.56 -20.34 M0 0 C3.09 -3.39, 15.47 -16.95, 18.56 -20.34" transform="translate(10.965043651800443 30.842949227285317) rotate(0 9.279394355344266 -10.171644493321196)"/></g></g><g stroke-linecap="round"><g><path fill="none" stroke="#ffc9c9" stroke-width="2" d="M0 0 C6.75 -7.69, 33.73 -38.43, 40.47 -46.11 M0 0 C6.75 -7.69, 33.73 -38.43, 40.47 -46.11" transform="translate(10.215554652300852 56.111453584161154) rotate(0 20.23621932406627 -23.055726792080577)"/></g></g><g stroke-linecap="round"><path fill="#e9ecef" stroke="none" stroke-width="0" d="M18.15 0 C30.48 0, 42.81 0, 54.58 0 C66.68 0, 72.73 6.05, 72.73 18.15 C72.73 27.58, 72.73 37.01, 72.73 54.44 C72.73 66.54, 66.68 72.59, 54.58 72.59 C45.82 72.59, 37.07 72.59, 18.15 72.59 C6.05 72.59, 0 66.54, 0 54.44 C0 46.13, 0 37.83, 0 18.15 C0 6.05, 6.05 0, 18.15 0" transform="translate(10 10.045803881558413) rotate(0 36.36251088286417 36.29482530271446)"/><path fill="none" stroke="#1e1e1e" stroke-width="4" d="M18.15 0 C30.23 0, 42.32 0, 54.58 0 M18.15 0 C31.63 0, 45.11 0, 54.58 0 M54.58 0 C66.68 0, 72.73 6.05, 72.73 18.15 M54.58 0 C66.68 0, 72.73 6.05, 72.73 18.15 M72.73 18.15 C72.73 26.21, 72.73 34.26, 72.73 54.44 M72.73 18.15 C72.73 29.43, 72.73 40.71, 72.73 54.44 M72.73 54.44 C72.73 66.54, 66.68 72.59, 54.58 72.59 M72.73 54.44 C72.73 66.54, 66.68 72.59, 54.58 72.59 M54.58 72.59 C41.39 72.59, 28.21 72.59, 18.15 72.59 M54.58 72.59 C46.6 72.59, 38.62 72.59, 18.15 72.59 M18.15 72.59 C6.05 72.59, 0 66.54, 0 54.44 M18.15 72.59 C6.05 72.59, 0 66.54, 0 54.44 M0 54.44 C0 40.13, 0 25.82, 0 18.15 M0 54.44 C0 45.22, 0 35.99, 0 18.15 M0 18.15 C0 6.05, 6.05 0, 18.15 0 M0 18.15 C0 6.05, 6.05 0, 18.15 0" transform="translate(10 10.045803881558413) rotate(0 36.36251088286417 36.29482530271446)"/></g><g stroke-linecap="round"><g><path fill="none" stroke="#1e1e1e" stroke-width="4" d="M0 0 C-0.28 -0.62, 0.06 -3.01, -1.66 -3.73 C-3.39 -4.46, -6.12 -7.07, -10.34 -4.35 C-14.56 -1.64, -24 7.69, -26.97 12.56 C-29.94 17.43, -29.41 21.74, -28.16 24.87 C-26.91 28, -22.79 31.36, -19.49 31.34 C-16.18 31.32, -10.18 25.85, -8.32 24.75 M0 0 C-0.28 -0.62, 0.06 -3.01, -1.66 -3.73 C-3.39 -4.46, -6.12 -7.07, -10.34 -4.35 C-14.56 -1.64, -24 7.69, -26.97 12.56 C-29.94 17.43, -29.41 21.74, -28.16 24.87 C-26.91 28, -22.79 31.36, -19.49 31.34 C-16.18 31.32, -10.18 25.85, -8.32 24.75" transform="translate(48.763105290455314 42.15901526942412) rotate(0 -14.080277416235731 13.493049108482523)"/></g></g><g stroke-linecap="round"><g><path fill="none" stroke="#1e1e1e" stroke-width="4" d="M0 0 C0.28 0.62, -0.06 3.01, 1.66 3.73 C3.39 4.46, 6.12 7.07, 10.34 4.35 C14.56 1.64, 24 -7.69, 26.97 -12.56 C29.94 -17.43, 29.41 -21.74, 28.16 -24.87 C26.91 -28, 22.79 -31.36, 19.49 -31.34 C16.18 -31.32, 10.18 -25.85, 8.32 -24.75 M0 0 C0.28 0.62, -0.06 3.01, 1.66 3.73 C3.39 4.46, 6.12 7.07, 10.34 4.35 C14.56 1.64, 24 -7.69, 26.97 -12.56 C29.94 -17.43, 29.41 -21.74, 28.16 -24.87 C26.91 -28, 22.79 -31.36, 19.49 -31.34 C16.18 -31.32, 10.18 -25.85, 8.32 -24.75" transform="translate(41.255189852884996 50.03247373851195) rotate(0 14.080277416235731 -13.493049108482523)"/></g></g><g><text x="15.104" y="20.282" fill="#1971c2" direction="ltr" dominant-baseline="alphabetic" font-family="Comic Shanns, Segoe UI Emoji" font-size="23.179" text-anchor="middle" transform="translate(50.72202405398002 52.22922084026163) rotate(0 15.1039790958107 14.48714368125718)" style="white-space:pre">⚡</text></g></svg>